<svg width="20" height="20" viewBox="0 0 20 20" fill="none" xmlns="http://www.w3.org/2000/svg">
<path d="M2.24603 7.99059C1.93361 8.30301 1.93361 8.80954 2.24603 9.12196C2.55845 9.43438 3.06499 9.43438 3.3774 9.12196L8.80039 3.69897L8.80039 17.4328C8.80039 17.8747 9.15856 18.2328 9.60039 18.2328C10.0422 18.2328 10.4004 17.8747 10.4004 17.4328L10.4004 3.69987L15.8225 9.12196C16.1349 9.43438 16.6414 9.43438 16.9539 9.12196C17.2663 8.80954 17.2663 8.30301 16.9539 7.99059L10.187 1.22372C10.0409 1.06624 9.83214 0.967701 9.60039 0.967701C9.44927 0.967701 9.30793 1.0096 9.18737 1.08242C9.13281 1.11531 9.08133 1.15529 9.03426 1.20237L2.24603 7.99059Z" fill="#FD5B4F"/>
</svg>
