<svg width="20" height="20" viewBox="0 0 20 20" fill="none" xmlns="http://www.w3.org/2000/svg">
<path d="M3.04612 8.7906C2.73372 9.103 2.73372 9.6095 3.04612 9.922C3.35862 10.2344 3.86512 10.2344 4.17752 9.922L9.60052 4.499V18.2328C9.60052 18.6747 9.95872 19.0328 10.4005 19.0328C10.8423 19.0328 11.2005 18.6747 11.2005 18.2328V4.4999L16.6226 9.922C16.935 10.2344 17.4415 10.2344 17.754 9.922C18.0664 9.6095 18.0664 9.103 17.754 8.7906L10.9871 2.0237C10.841 1.8662 10.6323 1.7677 10.4005 1.7677C10.2494 1.7677 10.108 1.8096 9.98752 1.8824C9.93292 1.9153 9.88142 1.9553 9.83442 2.0024L3.04612 8.7906Z" fill="#99ACB3"/>
</svg>
