<svg width="154" height="44" viewBox="0 0 154 44" fill="none" xmlns="http://www.w3.org/2000/svg">
<path d="M60.6672 19.0001V16.6241C61.3859 16.6241 62.0606 16.4921 62.6912 16.2281C63.3219 15.9494 63.8719 15.5681 64.3412 15.0841C64.8106 14.6001 65.1772 14.0354 65.4412 13.3901C65.7052 12.7448 65.8372 12.0481 65.8372 11.3001C65.8372 10.5521 65.7052 9.85543 65.4412 9.2101C65.1772 8.56476 64.8106 8.0001 64.3412 7.5161C63.8719 7.0321 63.3219 6.6581 62.6912 6.3941C62.0606 6.11543 61.3859 5.9761 60.6672 5.9761V3.6001C62.1779 3.6001 63.5126 3.9301 64.6712 4.5901C65.8446 5.23543 66.7612 6.13743 67.4212 7.2961C68.0959 8.45477 68.4332 9.78943 68.4332 11.3001C68.4332 12.7961 68.0959 14.1234 67.4212 15.2821C66.7612 16.4408 65.8446 17.3501 64.6712 18.0101C63.5126 18.6701 62.1779 19.0001 60.6672 19.0001ZM57.4772 19.0001V16.6241H60.6672V19.0001H57.4772ZM55.8272 19.0001V3.6001H58.3792V19.0001H55.8272ZM57.4772 5.9761V3.6001H60.6672V5.9761H57.4772Z" fill="white"/>
<path d="M75.2601 19.2641C74.1894 19.2641 73.2361 19.0221 72.4001 18.5381C71.5641 18.0394 70.9114 17.3574 70.4421 16.4921C69.9728 15.6268 69.7381 14.6294 69.7381 13.5001C69.7381 12.3708 69.9801 11.3734 70.4641 10.5081C70.9481 9.64276 71.6081 8.9681 72.4441 8.4841C73.2801 7.98543 74.2481 7.7361 75.3481 7.7361C76.3161 7.7361 77.1961 7.99276 77.9881 8.5061C78.7801 9.00477 79.4034 9.73077 79.8581 10.6841C80.3274 11.6374 80.5621 12.7741 80.5621 14.0941H78.0761C78.0908 13.1408 77.9808 12.3561 77.7461 11.7401C77.5261 11.1241 77.2034 10.6694 76.7781 10.3761C76.3528 10.0681 75.8468 9.9141 75.2601 9.9141C74.6441 9.9141 74.1161 10.0534 73.6761 10.3321C73.2508 10.6108 72.9208 11.0214 72.6861 11.5641C72.4514 12.0921 72.3341 12.7594 72.3341 13.5661C72.3341 14.2848 72.4734 14.9008 72.7521 15.4141C73.0308 15.9274 73.4048 16.3234 73.8741 16.6021C74.3581 16.8661 74.8934 16.9981 75.4801 16.9981C76.1254 16.9981 76.6608 16.8514 77.0861 16.5581C77.5114 16.2501 77.8414 15.8614 78.0761 15.3921L80.3421 16.3601C80.0341 16.9468 79.6454 17.4601 79.1761 17.9001C78.7068 18.3401 78.1421 18.6774 77.4821 18.9121C76.8221 19.1468 76.0814 19.2641 75.2601 19.2641ZM71.3441 14.0941L71.3661 12.1361H79.2861V14.0941H71.3441Z" fill="white"/>
<path d="M85.2694 19.0001L89.5594 8.0001H92.1114L87.5794 19.0001H85.2694ZM85.0934 19.0001L80.5394 8.0001H83.0694L87.3814 19.0001H85.0934Z" fill="white"/>
<path d="M97.9485 19.2641C96.8778 19.2641 95.9244 19.0221 95.0885 18.5381C94.2525 18.0394 93.5998 17.3574 93.1305 16.4921C92.6611 15.6268 92.4265 14.6294 92.4265 13.5001C92.4265 12.3708 92.6684 11.3734 93.1525 10.5081C93.6365 9.64276 94.2965 8.9681 95.1325 8.4841C95.9684 7.98543 96.9365 7.7361 98.0365 7.7361C99.0045 7.7361 99.8845 7.99276 100.676 8.5061C101.468 9.00477 102.092 9.73077 102.546 10.6841C103.016 11.6374 103.25 12.7741 103.25 14.0941H100.764C100.779 13.1408 100.669 12.3561 100.434 11.7401C100.214 11.1241 99.8918 10.6694 99.4665 10.3761C99.0411 10.0681 98.5351 9.9141 97.9485 9.9141C97.3325 9.9141 96.8045 10.0534 96.3645 10.3321C95.9391 10.6108 95.6091 11.0214 95.3745 11.5641C95.1398 12.0921 95.0225 12.7594 95.0225 13.5661C95.0225 14.2848 95.1618 14.9008 95.4405 15.4141C95.7191 15.9274 96.0931 16.3234 96.5625 16.6021C97.0465 16.8661 97.5818 16.9981 98.1685 16.9981C98.8138 16.9981 99.3491 16.8514 99.7745 16.5581C100.2 16.2501 100.53 15.8614 100.764 15.3921L103.03 16.3601C102.722 16.9468 102.334 17.4601 101.864 17.9001C101.395 18.3401 100.83 18.6774 100.17 18.9121C99.5105 19.1468 98.7698 19.2641 97.9485 19.2641ZM94.0325 14.0941L94.0545 12.1361H101.974V14.0941H94.0325Z" fill="white"/>
<path d="M104.824 19.0001L104.846 3.6001H107.31L107.288 19.0001H104.824Z" fill="white"/>
<path d="M114.819 19.2641C113.704 19.2641 112.714 19.0221 111.849 18.5381C110.998 18.0394 110.331 17.3574 109.847 16.4921C109.363 15.6268 109.121 14.6294 109.121 13.5001C109.121 12.3708 109.355 11.3734 109.825 10.5081C110.309 9.64276 110.976 8.9681 111.827 8.4841C112.692 7.98543 113.675 7.7361 114.775 7.7361C115.889 7.7361 116.872 7.98543 117.723 8.4841C118.573 8.9681 119.241 9.64276 119.725 10.5081C120.209 11.3734 120.451 12.3708 120.451 13.5001C120.451 14.6294 120.209 15.6268 119.725 16.4921C119.241 17.3574 118.573 18.0394 117.723 18.5381C116.887 19.0221 115.919 19.2641 114.819 19.2641ZM114.819 16.8881C115.405 16.8881 115.919 16.7488 116.359 16.4701C116.813 16.1768 117.165 15.7734 117.415 15.2601C117.679 14.7468 117.811 14.1601 117.811 13.5001C117.811 12.8401 117.679 12.2534 117.415 11.7401C117.165 11.2268 116.806 10.8308 116.337 10.5521C115.882 10.2588 115.361 10.1121 114.775 10.1121C114.188 10.1121 113.667 10.2588 113.213 10.5521C112.758 10.8308 112.399 11.2268 112.135 11.7401C111.885 12.2534 111.761 12.8401 111.761 13.5001C111.761 14.1601 111.885 14.7468 112.135 15.2601C112.399 15.7734 112.758 16.1768 113.213 16.4701C113.682 16.7488 114.217 16.8881 114.819 16.8881Z" fill="white"/>
<path d="M122.359 23.4001V8.0001H124.669L124.823 10.0241V23.4001H122.359ZM128.299 19.2641C127.375 19.2641 126.575 19.0294 125.901 18.5601C125.241 18.0761 124.735 17.4014 124.383 16.5361C124.031 15.6708 123.855 14.6588 123.855 13.5001C123.855 12.3268 124.031 11.3148 124.383 10.4641C124.735 9.59876 125.241 8.93143 125.901 8.4621C126.575 7.9781 127.375 7.7361 128.299 7.7361C129.296 7.7361 130.161 7.9781 130.895 8.4621C131.643 8.93143 132.222 9.59876 132.633 10.4641C133.058 11.3148 133.271 12.3268 133.271 13.5001C133.271 14.6588 133.058 15.6708 132.633 16.5361C132.222 17.4014 131.643 18.0761 130.895 18.5601C130.161 19.0294 129.296 19.2641 128.299 19.2641ZM127.683 17.0201C128.269 17.0201 128.79 16.8734 129.245 16.5801C129.699 16.2721 130.059 15.8541 130.323 15.3261C130.601 14.7981 130.741 14.1894 130.741 13.5001C130.741 12.8108 130.609 12.2021 130.345 11.6741C130.095 11.1461 129.743 10.7354 129.289 10.4421C128.834 10.1488 128.306 10.0021 127.705 10.0021C127.147 10.0021 126.649 10.1488 126.209 10.4421C125.769 10.7354 125.424 11.1461 125.175 11.6741C124.94 12.2021 124.823 12.8108 124.823 13.5001C124.823 14.1894 124.94 14.7981 125.175 15.3261C125.424 15.8541 125.761 16.2721 126.187 16.5801C126.627 16.8734 127.125 17.0201 127.683 17.0201Z" fill="white"/>
<path d="M139.974 19.2641C138.903 19.2641 137.95 19.0221 137.114 18.5381C136.278 18.0394 135.625 17.3574 135.156 16.4921C134.686 15.6268 134.452 14.6294 134.452 13.5001C134.452 12.3708 134.694 11.3734 135.178 10.5081C135.662 9.64276 136.322 8.9681 137.158 8.4841C137.994 7.98543 138.962 7.7361 140.062 7.7361C141.03 7.7361 141.91 7.99276 142.702 8.5061C143.494 9.00477 144.117 9.73077 144.572 10.6841C145.041 11.6374 145.276 12.7741 145.276 14.0941H142.79C142.804 13.1408 142.694 12.3561 142.46 11.7401C142.24 11.1241 141.917 10.6694 141.492 10.3761C141.066 10.0681 140.56 9.9141 139.974 9.9141C139.358 9.9141 138.83 10.0534 138.39 10.3321C137.964 10.6108 137.634 11.0214 137.4 11.5641C137.165 12.0921 137.048 12.7594 137.048 13.5661C137.048 14.2848 137.187 14.9008 137.466 15.4141C137.744 15.9274 138.118 16.3234 138.588 16.6021C139.072 16.8661 139.607 16.9981 140.194 16.9981C140.839 16.9981 141.374 16.8514 141.8 16.5581C142.225 16.2501 142.555 15.8614 142.79 15.3921L145.056 16.3601C144.748 16.9468 144.359 17.4601 143.89 17.9001C143.42 18.3401 142.856 18.6774 142.196 18.9121C141.536 19.1468 140.795 19.2641 139.974 19.2641ZM136.058 14.0941L136.08 12.1361H144V14.0941H136.058Z" fill="white"/>
<path d="M148.477 13.1481C148.477 11.9601 148.704 10.9848 149.159 10.2221C149.614 9.45943 150.2 8.89476 150.919 8.5281C151.652 8.14676 152.415 7.9561 153.207 7.9561V10.3101C152.532 10.3101 151.894 10.4054 151.293 10.5961C150.706 10.7721 150.23 11.0654 149.863 11.4761C149.496 11.8868 149.313 12.4294 149.313 13.1041L148.477 13.1481ZM146.849 19.0001V8.0001H149.313V19.0001H146.849Z" fill="white"/>
<path d="M66.4972 40.0001L60.4912 24.6001H63.0432L69.2032 40.0001H66.4972ZM54.1992 40.0001L60.3372 24.6001H62.9112L56.9052 40.0001H54.1992ZM57.0812 36.2161V33.9501H66.2992V36.2161H57.0812Z" fill="white"/>
<path d="M72.662 36.9201L71.166 35.2261L76.886 29.0001H79.856L72.662 36.9201ZM70.308 40.0001V24.6001H72.772V40.0001H70.308ZM77.304 40.0001L73.432 34.3021L75.038 32.5861L80.23 40.0001H77.304Z" fill="white"/>
<path d="M87.5796 40.0001L87.4696 34.3461C87.4696 33.5981 87.3889 32.9748 87.2276 32.4761C87.0662 31.9774 86.8169 31.5961 86.4796 31.3321C86.1422 31.0681 85.6876 30.9361 85.1156 30.9361C84.6022 30.9361 84.1476 31.0461 83.7516 31.2661C83.3556 31.4861 83.0256 31.8234 82.7616 32.2781L80.5616 31.5081C80.8109 31.0241 81.1336 30.5694 81.5296 30.1441C81.9256 29.7188 82.4242 29.3814 83.0256 29.1321C83.6269 28.8681 84.3456 28.7361 85.1816 28.7361C86.2376 28.7361 87.1176 28.9341 87.8216 29.3301C88.5402 29.7261 89.0756 30.3128 89.4276 31.0901C89.7796 31.8674 89.9556 32.8281 89.9556 33.9721V40.0001H87.5796ZM84.4556 40.2641C83.1502 40.2641 82.1309 39.9708 81.3976 39.3841C80.6789 38.7974 80.3196 37.9688 80.3196 36.8981C80.3196 35.7541 80.7009 34.8814 81.4636 34.2801C82.2409 33.6788 83.3189 33.3781 84.6976 33.3781H88.1516L88.1736 35.2701H85.4676C84.4849 35.2701 83.7956 35.4094 83.3996 35.6881C83.0182 35.9521 82.8276 36.3334 82.8276 36.8321C82.8276 37.2574 82.9962 37.5948 83.3336 37.8441C83.6856 38.0788 84.1696 38.1961 84.7856 38.1961C85.3282 38.1961 85.7976 38.0714 86.1936 37.8221C86.6042 37.5581 86.9196 37.2208 87.1396 36.8101C87.3596 36.3848 87.4696 35.9301 87.4696 35.4461H88.3936C88.3936 36.9421 88.0709 38.1228 87.4256 38.9881C86.7949 39.8388 85.8049 40.2641 84.4556 40.2641Z" fill="white"/>
<path d="M99.9716 40.0001L99.8616 37.9541V24.6001H102.304V40.0001H99.9716ZM96.3856 40.2641C95.3883 40.2641 94.5156 40.0294 93.7676 39.5601C93.0343 39.0761 92.4549 38.4014 92.0296 37.5361C91.6189 36.6708 91.4136 35.6588 91.4136 34.5001C91.4136 33.3268 91.6189 32.3148 92.0296 31.4641C92.4549 30.5988 93.0343 29.9314 93.7676 29.4621C94.5156 28.9781 95.3883 28.7361 96.3856 28.7361C97.3096 28.7361 98.1016 28.9781 98.7616 29.4621C99.4363 29.9314 99.9496 30.5988 100.302 31.4641C100.654 32.3148 100.83 33.3268 100.83 34.5001C100.83 35.6588 100.654 36.6708 100.302 37.5361C99.9496 38.4014 99.4363 39.0761 98.7616 39.5601C98.1016 40.0294 97.3096 40.2641 96.3856 40.2641ZM97.0016 38.0201C97.5589 38.0201 98.0503 37.8734 98.4756 37.5801C98.9156 37.2721 99.2529 36.8541 99.4876 36.3261C99.7369 35.7981 99.8616 35.1894 99.8616 34.5001C99.8616 33.8108 99.7369 33.2021 99.4876 32.6741C99.2529 32.1461 98.9156 31.7354 98.4756 31.4421C98.0503 31.1488 97.5516 31.0021 96.9796 31.0021C96.3929 31.0021 95.8723 31.1488 95.4176 31.4421C94.9629 31.7354 94.6036 32.1461 94.3396 32.6741C94.0903 33.2021 93.9583 33.8108 93.9436 34.5001C93.9583 35.1894 94.0903 35.7981 94.3396 36.3261C94.6036 36.8541 94.9629 37.2721 95.4176 37.5801C95.8869 37.8734 96.4149 38.0201 97.0016 38.0201Z" fill="white"/>
<path d="M109.626 40.2641C108.555 40.2641 107.602 40.0221 106.766 39.5381C105.93 39.0394 105.277 38.3574 104.808 37.4921C104.338 36.6268 104.104 35.6294 104.104 34.5001C104.104 33.3708 104.346 32.3734 104.83 31.5081C105.314 30.6428 105.974 29.9681 106.81 29.4841C107.646 28.9854 108.614 28.7361 109.714 28.7361C110.682 28.7361 111.562 28.9928 112.354 29.5061C113.146 30.0048 113.769 30.7308 114.224 31.6841C114.693 32.6374 114.928 33.7741 114.928 35.0941H112.442C112.456 34.1408 112.346 33.3561 112.112 32.7401C111.892 32.1241 111.569 31.6694 111.144 31.3761C110.718 31.0681 110.212 30.9141 109.626 30.9141C109.01 30.9141 108.482 31.0534 108.042 31.3321C107.616 31.6108 107.286 32.0214 107.052 32.5641C106.817 33.0921 106.7 33.7594 106.7 34.5661C106.7 35.2848 106.839 35.9008 107.118 36.4141C107.396 36.9274 107.77 37.3234 108.24 37.6021C108.724 37.8661 109.259 37.9981 109.846 37.9981C110.491 37.9981 111.026 37.8514 111.452 37.5581C111.877 37.2501 112.207 36.8614 112.442 36.3921L114.708 37.3601C114.4 37.9468 114.011 38.4601 113.542 38.9001C113.072 39.3401 112.508 39.6774 111.848 39.9121C111.188 40.1468 110.447 40.2641 109.626 40.2641ZM105.71 35.0941L105.732 33.1361H113.652V35.0941H105.71Z" fill="white"/>
<path d="M116.501 40.0001V29.0001H118.811L118.965 31.0241V40.0001H116.501ZM123.959 40.0001V34.3681L126.423 33.7081V40.0001H123.959ZM131.439 40.0001V34.3681L133.881 33.7081V40.0001H131.439ZM123.959 34.3681C123.959 33.4881 123.856 32.8134 123.651 32.3441C123.46 31.8601 123.182 31.5228 122.815 31.3321C122.463 31.1414 122.045 31.0461 121.561 31.0461C120.74 31.0314 120.102 31.3028 119.647 31.8601C119.192 32.4174 118.965 33.2168 118.965 34.2581H118.041C118.041 33.0994 118.21 32.1094 118.547 31.2881C118.884 30.4521 119.368 29.8214 119.999 29.3961C120.63 28.9561 121.378 28.7361 122.243 28.7361C123.578 28.7361 124.604 29.1468 125.323 29.9681C126.056 30.7748 126.423 32.0214 126.423 33.7081L123.959 34.3681ZM131.439 34.3681C131.439 33.4881 131.336 32.8134 131.131 32.3441C130.926 31.8601 130.64 31.5228 130.273 31.3321C129.921 31.1414 129.51 31.0461 129.041 31.0461C128.205 31.0314 127.56 31.3028 127.105 31.8601C126.65 32.4174 126.423 33.2168 126.423 34.2581H125.499C125.499 33.0994 125.668 32.1094 126.005 31.2881C126.342 30.4521 126.826 29.8214 127.457 29.3961C128.088 28.9561 128.836 28.7361 129.701 28.7361C131.036 28.7361 132.07 29.1468 132.803 29.9681C133.536 30.7748 133.896 32.0214 133.881 33.7081L131.439 34.3681Z" fill="white"/>
<path d="M136.11 40.0001L136.132 29.0001H138.574L138.552 40.0001H136.11ZM137.342 26.9101C136.946 26.9101 136.601 26.7708 136.308 26.4921C136.029 26.1988 135.89 25.8541 135.89 25.4581C135.89 25.0621 136.029 24.7248 136.308 24.4461C136.601 24.1674 136.946 24.0281 137.342 24.0281C137.738 24.0281 138.075 24.1674 138.354 24.4461C138.647 24.7248 138.794 25.0621 138.794 25.4581C138.794 25.8541 138.647 26.1988 138.354 26.4921C138.075 26.7708 137.738 26.9101 137.342 26.9101Z" fill="white"/>
<path d="M146.054 40.2641C144.983 40.2641 144.03 40.0221 143.194 39.5381C142.358 39.0394 141.705 38.3574 141.236 37.4921C140.766 36.6268 140.532 35.6294 140.532 34.5001C140.532 33.3708 140.774 32.3734 141.258 31.5081C141.742 30.6428 142.402 29.9681 143.238 29.4841C144.074 28.9854 145.042 28.7361 146.142 28.7361C147.11 28.7361 147.99 28.9928 148.782 29.5061C149.574 30.0048 150.197 30.7308 150.652 31.6841C151.121 32.6374 151.356 33.7741 151.356 35.0941H148.87C148.884 34.1408 148.774 33.3561 148.54 32.7401C148.32 32.1241 147.997 31.6694 147.572 31.3761C147.146 31.0681 146.64 30.9141 146.054 30.9141C145.438 30.9141 144.91 31.0534 144.47 31.3321C144.044 31.6108 143.714 32.0214 143.48 32.5641C143.245 33.0921 143.128 33.7594 143.128 34.5661C143.128 35.2848 143.267 35.9008 143.546 36.4141C143.824 36.9274 144.198 37.3234 144.668 37.6021C145.152 37.8661 145.687 37.9981 146.274 37.9981C146.919 37.9981 147.454 37.8514 147.88 37.5581C148.305 37.2501 148.635 36.8614 148.87 36.3921L151.136 37.3601C150.828 37.9468 150.439 38.4601 149.97 38.9001C149.5 39.3401 148.936 39.6774 148.276 39.9121C147.616 40.1468 146.875 40.2641 146.054 40.2641ZM142.138 35.0941L142.16 33.1361H150.08V35.0941H142.138Z" fill="white"/>
<path d="M23.3311 27.0299C23.3406 27.0929 23.3796 27.1476 23.4361 27.1772C23.4925 27.2067 23.5597 27.2076 23.617 27.1795L31.9549 23.0864C32.0078 23.0604 32.0466 23.0125 32.0608 22.9553C32.1661 22.5331 32.2002 22.1144 32.2002 21.6629C32.2002 21.1637 32.131 20.7085 32.0641 20.3059C32.0534 20.2419 32.0125 20.1871 31.9542 20.1588L23.6163 16.1058C23.5595 16.0782 23.4931 16.079 23.437 16.108C23.381 16.137 23.3419 16.1907 23.3315 16.2529L23.3303 16.2603C23.2986 16.4511 23.2639 16.6596 23.2622 16.8712C23.2287 17.0846 23.2288 17.3321 23.2288 17.5594V17.5698C23.2288 17.6547 23.2369 17.7478 23.2446 17.8346L23.2462 17.8531C23.2546 17.9489 23.2621 18.0411 23.2621 18.1316C23.2621 18.1426 23.263 18.1536 23.2648 18.1644C23.2794 18.2518 23.2871 18.34 23.2952 18.4329L23.2962 18.445C23.3044 18.5383 23.3135 18.6404 23.333 18.7341C23.3461 18.797 23.3886 18.8499 23.4474 18.8761L29.6162 21.6264L23.4446 24.4911C23.3873 24.5177 23.3459 24.5699 23.333 24.6318C23.2995 24.7932 23.2639 25.0028 23.2622 25.2178C23.2288 25.4293 23.2288 25.6393 23.2288 25.8672V25.8764C23.2288 26.2109 23.2635 26.5828 23.3311 27.0299Z" fill="#FD5B4F"/>
<path fill-rule="evenodd" clip-rule="evenodd" d="M20.5642 11.8228C20.6206 11.8524 20.6597 11.9071 20.6692 11.9701C20.7367 12.4172 20.7715 12.789 20.7715 13.1236V13.1329C20.7715 13.3608 20.7715 13.5707 20.7381 13.7822C20.7363 13.9972 20.7008 14.2067 20.6672 14.3681C20.6544 14.43 20.613 14.4822 20.5556 14.5089L14.384 17.3735L20.5529 20.1239C20.6116 20.1501 20.6542 20.2029 20.6672 20.2659C20.6867 20.3596 20.6959 20.4617 20.704 20.555L20.7051 20.567C20.7132 20.6599 20.7209 20.7481 20.7354 20.8356C20.7372 20.8464 20.7381 20.8574 20.7381 20.8684C20.7381 20.9588 20.7457 21.0511 20.754 21.1469L20.7557 21.1653C20.7633 21.2521 20.7715 21.3452 20.7715 21.4302V21.4406C20.7715 21.6679 20.7715 21.9154 20.7381 22.1288C20.7363 22.3404 20.7017 22.5488 20.67 22.7396L20.6687 22.7471C20.6584 22.8093 20.6193 22.863 20.5632 22.892C20.5072 22.9209 20.4407 22.9217 20.384 22.8941L12.046 18.8412C11.9877 18.8128 11.9468 18.758 11.9362 18.6941C11.8692 18.2915 11.8 17.8363 11.8 17.3371C11.8 16.8855 11.8341 16.4669 11.9394 16.0447C11.9537 15.9875 11.9924 15.9395 12.0453 15.9136L20.3833 11.8205C20.4405 11.7924 20.5077 11.7932 20.5642 11.8228Z" fill="#FD5B4F"/>
<path fill-rule="evenodd" clip-rule="evenodd" d="M39 4.5H5C2.51472 4.5 0.5 6.51472 0.5 9V30C0.5 32.4853 2.51472 34.5 5 34.5H39C41.4853 34.5 43.5 32.4853 43.5 30V9C43.5 6.51472 41.4853 4.5 39 4.5ZM3 9C3 7.89543 3.89543 7 5 7H39C40.1046 7 41 7.89543 41 9V30C41 31.1046 40.1046 32 39 32H5C3.89543 32 3 31.1046 3 30V9Z" fill="#FD5B4F"/>
<path d="M5.25 37C4.55964 37 4 37.5596 4 38.25C4 38.9404 4.55964 39.5 5.25 39.5H38.75C39.4404 39.5 40 38.9404 40 38.25C40 37.5596 39.4404 37 38.75 37H5.25Z" fill="#FD5B4F"/>
</svg>
